<?xml version="1.0" encoding="UTF-8" standalone="no"?>
<!DOCTYPE svg PUBLIC "-//W3C//DTD SVG 1.1//EN" "http://www.w3.org/Graphics/SVG/1.1/DTD/svg11.dtd">
<svg width="100%" height="100%" viewBox="0 0 380 68" version="1.1" xmlns="http://www.w3.org/2000/svg" xmlns:xlink="http://www.w3.org/1999/xlink" xml:space="preserve" xmlns:serif="http://www.serif.com/" style="fill-rule:evenodd;clip-rule:evenodd;stroke-linejoin:round;stroke-miterlimit:2;">
    <g transform="matrix(1,0,0,1,-227.592,-255.427)">
        <g>
            <g transform="matrix(-1,0,0,1,877.783,-124.675)">
                <g transform="matrix(-1,-9.71445e-17,9.71445e-17,-1,748.446,836.958)">
                    <path d="M287.914,389.198L309.315,432L266.513,432L287.914,389.198Z" style="fill:rgb(0,76,255);"/>
                </g>
                <g transform="matrix(-0.997288,0.0736001,-0.0736001,-0.997288,822.007,813.399)">
                    <path d="M287.914,389.198L309.315,432L266.513,432L287.914,389.198Z" style="fill:rgb(0,76,255);"/>
                </g>
                <g transform="matrix(-0.98974,0.142881,-0.142881,-0.98974,892.288,785.468)">
                    <path d="M287.914,389.198L309.315,432L266.513,432L287.914,389.198Z" style="fill:rgb(0,76,255);"/>
                </g>
                <g transform="matrix(-0.980013,0.198932,-0.198932,-0.980013,955.19,758.144)">
                    <path d="M287.914,389.198L309.315,432L266.513,432L287.914,389.198Z" style="fill:rgb(0,76,255);"/>
                </g>
                <g transform="matrix(-0.984218,0.176961,-0.176961,-0.984218,988.945,758.121)">
                    <path d="M287.914,389.198L309.315,432L266.513,432L287.914,389.198Z" style="fill:rgb(0,76,255);"/>
                </g>
            </g>
            <g transform="matrix(1,0,0,1,-43.0829,-124.675)">
                <g transform="matrix(-0.997288,0.0736001,-0.0736001,-0.997288,822.007,813.399)">
                    <path d="M287.914,389.198L309.315,432L266.513,432L287.914,389.198Z" style="fill:rgb(0,76,255);"/>
                </g>
                <g transform="matrix(-0.98974,0.142881,-0.142881,-0.98974,892.288,785.468)">
                    <path d="M287.914,389.198L309.315,432L266.513,432L287.914,389.198Z" style="fill:rgb(0,76,255);"/>
                </g>
                <g transform="matrix(-0.980013,0.198932,-0.198932,-0.980013,955.19,758.144)">
                    <path d="M287.914,389.198L309.315,432L266.513,432L287.914,389.198Z" style="fill:rgb(0,76,255);"/>
                </g>
                <g transform="matrix(-0.984218,0.176961,-0.176961,-0.984218,988.945,758.121)">
                    <path d="M287.914,389.198L309.315,432L266.513,432L287.914,389.198Z" style="fill:rgb(0,76,255);"/>
                </g>
            </g>
        </g>
    </g>
</svg>
