<?xml version="1.0" encoding="UTF-8" standalone="no"?>
<!DOCTYPE svg PUBLIC "-//W3C//DTD SVG 1.1//EN" "http://www.w3.org/Graphics/SVG/1.1/DTD/svg11.dtd">
<svg width="100%" height="100%" viewBox="0 0 391 96" version="1.1" xmlns="http://www.w3.org/2000/svg" xmlns:xlink="http://www.w3.org/1999/xlink" xml:space="preserve" xmlns:serif="http://www.serif.com/" style="fill-rule:evenodd;clip-rule:evenodd;stroke-linejoin:round;stroke-miterlimit:2;">
    <g transform="matrix(1,0,0,1,-221.76,-255.427)">
        <g transform="matrix(0.427689,0,0,0.558361,175.037,56.2975)">
            <rect x="109.247" y="356.632" width="13.635" height="171.548" style="fill:rgb(78,84,104);"/>
        </g>
        <g transform="matrix(0.427689,0,0,0.558361,559.512,56.2975)">
            <rect x="109.247" y="356.632" width="13.635" height="171.548" style="fill:rgb(78,84,104);"/>
        </g>
        <g transform="matrix(1,0,0,1,-43.9554,-124.675)">
            <g transform="matrix(-1,-9.71445e-17,9.71445e-17,-1,748.446,836.958)">
                <path d="M287.914,389.198L309.315,432L266.513,432L287.914,389.198Z" style="fill:rgb(0,76,255);"/>
            </g>
            <g transform="matrix(-0.999532,0.0305892,-0.0305892,-0.999532,804.993,826.704)">
                <path d="M287.914,389.198L309.315,432L266.513,432L287.914,389.198Z" style="fill:rgb(0,76,255);"/>
            </g>
            <g transform="matrix(-0.992517,0.122104,-0.122104,-0.992517,883.386,792.529)">
                <path d="M287.914,389.198L309.315,432L266.513,432L287.914,389.198Z" style="fill:rgb(0,76,255);"/>
            </g>
            <g transform="matrix(-0.980013,0.198932,-0.198932,-0.980013,955.19,758.144)">
                <path d="M287.914,389.198L309.315,432L266.513,432L287.914,389.198Z" style="fill:rgb(0,76,255);"/>
            </g>
            <g transform="matrix(-0.984218,0.176961,-0.176961,-0.984218,988.945,758.121)">
                <path d="M287.914,389.198L309.315,432L266.513,432L287.914,389.198Z" style="fill:rgb(0,76,255);"/>
            </g>
        </g>
        <g transform="matrix(-1,0,0,1,877.783,-124.675)">
            <g transform="matrix(-1,-9.71445e-17,9.71445e-17,-1,748.446,836.958)">
                <path d="M287.914,389.198L309.315,432L266.513,432L287.914,389.198Z" style="fill:rgb(0,76,255);"/>
            </g>
            <g transform="matrix(-0.999532,0.0305892,-0.0305892,-0.999532,804.993,826.704)">
                <path d="M287.914,389.198L309.315,432L266.513,432L287.914,389.198Z" style="fill:rgb(0,76,255);"/>
            </g>
            <g transform="matrix(-0.992517,0.122104,-0.122104,-0.992517,883.386,792.529)">
                <path d="M287.914,389.198L309.315,432L266.513,432L287.914,389.198Z" style="fill:rgb(0,76,255);"/>
            </g>
            <g transform="matrix(-0.980013,0.198932,-0.198932,-0.980013,955.19,758.144)">
                <path d="M287.914,389.198L309.315,432L266.513,432L287.914,389.198Z" style="fill:rgb(0,76,255);"/>
            </g>
            <g transform="matrix(-0.984218,0.176961,-0.176961,-0.984218,988.945,758.121)">
                <path d="M287.914,389.198L309.315,432L266.513,432L287.914,389.198Z" style="fill:rgb(0,76,255);"/>
            </g>
        </g>
    </g>
</svg>
